<svg width="20" height="20" viewBox="0 0 20 20" fill="none" xmlns="http://www.w3.org/2000/svg">
<path d="M6 12.917C6.02155 11.0892 6.75722 9.34231 8.04977 8.04977C9.34231 6.75722 11.0892 6.02155 12.917 6C12.6623 4.51993 11.8619 3.18914 10.6739 2.27034C9.48593 1.35154 7.99666 0.911502 6.50009 1.03708C5.00352 1.16267 3.6084 1.84475 2.59016 2.94868C1.57191 4.05261 1.00452 5.49817 1 7C0.999783 8.41808 1.50184 9.7904 2.41713 10.8736C3.33241 11.9567 4.60175 12.6807 6 12.917ZM9.354 4.647C9.44774 4.74076 9.50039 4.86792 9.50039 5.0005C9.50039 5.13308 9.44774 5.26023 9.354 5.354L6.354 8.354C6.30755 8.40056 6.25238 8.4375 6.19163 8.46271C6.13089 8.48792 6.06577 8.50089 6 8.50089C5.93423 8.50089 5.86911 8.48792 5.80837 8.46271C5.74762 8.4375 5.69245 8.40056 5.646 8.354L4.146 6.854C4.09951 6.80751 4.06264 6.75232 4.03748 6.69158C4.01232 6.63084 3.99937 6.56574 3.99937 6.5C3.99937 6.43425 4.01232 6.36915 4.03748 6.30841C4.06264 6.24768 4.09951 6.19249 4.146 6.146C4.19249 6.09951 4.24768 6.06263 4.30842 6.03748C4.36916 6.01232 4.43426 5.99937 4.5 5.99937C4.56574 5.99937 4.63084 6.01232 4.69158 6.03748C4.75232 6.06263 4.80751 6.09951 4.854 6.146L6 7.293L8.646 4.646C8.69245 4.59944 8.74762 4.56249 8.80837 4.53729C8.86911 4.51208 8.93423 4.4991 9 4.4991C9.06577 4.4991 9.13089 4.51208 9.19163 4.53729C9.25238 4.56249 9.30755 4.60044 9.354 4.647ZM13 19C14.5913 19 16.1174 18.3679 17.2426 17.2426C18.3679 16.1174 19 14.5913 19 13C19 11.4087 18.3679 9.88258 17.2426 8.75736C16.1174 7.63214 14.5913 7 13 7C11.4087 7 9.88258 7.63214 8.75736 8.75736C7.63214 9.88258 7 11.4087 7 13C7 14.5913 7.63214 16.1174 8.75736 17.2426C9.88258 18.3679 11.4087 19 13 19ZM11.354 10.646L13 12.293L14.646 10.646C14.7399 10.5521 14.8672 10.4994 15 10.4994C15.1328 10.4994 15.2601 10.5521 15.354 10.646C15.4479 10.7399 15.5006 10.8672 15.5006 11C15.5006 11.1328 15.4479 11.2601 15.354 11.354L13.707 13L15.354 14.646C15.4479 14.7399 15.5006 14.8672 15.5006 15C15.5006 15.1328 15.4479 15.2601 15.354 15.354C15.2601 15.4479 15.1328 15.5006 15 15.5006C14.8672 15.5006 14.7399 15.4479 14.646 15.354L13 13.707L11.354 15.354C11.2601 15.4479 11.1328 15.5006 11 15.5006C10.8672 15.5006 10.7399 15.4479 10.646 15.354C10.5521 15.2601 10.4994 15.1328 10.4994 15C10.4994 14.8672 10.5521 14.7399 10.646 14.646L12.293 13L10.646 11.354C10.5995 11.3075 10.5626 11.2523 10.5375 11.1916C10.5123 11.1308 10.4994 11.0657 10.4994 11C10.4994 10.9343 10.5123 10.8692 10.5375 10.8084C10.5626 10.7477 10.5995 10.6925 10.646 10.646C10.6925 10.5995 10.7477 10.5626 10.8084 10.5375C10.8692 10.5123 10.9343 10.4994 11 10.4994C11.0657 10.4994 11.1308 10.5123 11.1916 10.5375C11.2523 10.5626 11.3075 10.5995 11.354 10.646Z" fill="#515050"/>
</svg>
