<svg width="11" height="10" viewBox="0 0 11 10" fill="none" xmlns="http://www.w3.org/2000/svg">
<path d="M2.75 3.055V1.14C2.75 1.05575 2.76664 0.97232 2.79895 0.894509C2.83127 0.816697 2.87864 0.746033 2.93833 0.68657C2.99803 0.627108 3.06888 0.580018 3.14681 0.548003C3.22475 0.515987 3.30824 0.499676 3.3925 0.500005H10.235L9.16 2.36001V6.14C9.16033 6.22435 9.14392 6.30793 9.11172 6.3859C9.07952 6.46386 9.03217 6.53465 8.97241 6.59418C8.91265 6.65371 8.84166 6.70079 8.76358 6.73269C8.68549 6.76458 8.60185 6.78067 8.5175 6.78H7.8675M2.75 3.055H0.5L1.5675 4.9175V8.6925C1.56684 8.77697 1.58291 8.86073 1.61477 8.93896C1.64664 9.01718 1.69368 9.08833 1.75317 9.14829C1.81267 9.20825 1.88345 9.25584 1.96142 9.28831C2.0394 9.32079 2.12303 9.33751 2.2075 9.33751H7.23C7.39933 9.33554 7.56109 9.26706 7.68037 9.14685C7.79964 9.02664 7.86685 8.86435 7.8675 8.69501V6.78M2.75 3.055H7.2275C7.39747 3.05567 7.56025 3.12365 7.6802 3.24407C7.80015 3.36449 7.8675 3.52754 7.8675 3.6975V6.78M4.0975 4.31V8.08001M5.3525 4.31V8.08001M6.61 5.5675H2.84M6.61 6.8225H2.84" stroke="white" stroke-linecap="round" stroke-linejoin="round"/>
</svg>
