<svg width="24" height="24" viewBox="0 0 24 24" fill="none" xmlns="http://www.w3.org/2000/svg">
<path d="M12.879 3.879C12.3166 4.44158 12.0006 5.20451 12.0006 6C12.0006 6.79549 12.3166 7.55842 12.879 8.121L12.969 8.206L13.063 8.289L13.159 8.369L13.317 8.484C13.7875 8.80282 14.3389 8.98141 14.907 8.999L15 8.998V15.001H14.908C14.3227 15.0188 13.7554 15.2075 13.276 15.5439C12.7967 15.8803 12.4263 16.3495 12.2105 16.8939C11.9946 17.4383 11.9428 18.0339 12.0614 18.6073C12.1801 19.1808 12.4639 19.7069 12.878 20.121C12.95 20.1928 12.9992 20.2844 13.0191 20.3842C13.0391 20.4839 13.029 20.5874 12.9901 20.6814C12.9512 20.7754 12.8853 20.8558 12.8008 20.9123C12.7162 20.9688 12.6167 20.999 12.515 20.999L6 21C5.20435 21 4.44129 20.6839 3.87868 20.1213C3.31607 19.5587 3 18.7956 3 18V6C3 5.20435 3.31607 4.44129 3.87868 3.87868C4.44129 3.31607 5.20435 3 6 3H12.514C12.6159 2.99987 12.7155 3.02996 12.8003 3.08648C12.8851 3.143 12.9512 3.22339 12.9903 3.3175C13.0294 3.41161 13.0397 3.51519 13.0199 3.61514C13 3.71509 12.951 3.80692 12.879 3.879Z" fill="#515050"/>
<path d="M18 13C18.2652 13 18.5196 13.1054 18.7071 13.2929C18.8947 13.4804 19 13.7348 19 14V18.584L20.293 17.293C20.4652 17.1208 20.6943 17.0174 20.9373 17.0021C21.1804 16.9868 21.4206 17.0607 21.613 17.21L21.707 17.293C21.8945 17.4805 21.9998 17.7348 21.9998 18C21.9998 18.2652 21.8945 18.5195 21.707 18.707L18.707 21.707C18.6721 21.7421 18.6347 21.7745 18.595 21.804L18.485 21.875L18.371 21.929L18.266 21.964L18.117 21.994L18 22L17.925 21.997L17.799 21.98L17.688 21.95L17.577 21.906L17.479 21.854L17.383 21.787L17.293 21.707L14.293 18.707C14.1109 18.5184 14.0101 18.2658 14.0124 18.0036C14.0146 17.7414 14.1198 17.4906 14.3052 17.3052C14.4906 17.1198 14.7414 17.0146 15.0036 17.0123C15.2658 17.01 15.5184 17.1108 15.707 17.293L17 18.586V14C17 13.7348 17.1054 13.4804 17.2929 13.2929C17.4805 13.1054 17.7348 13 18 13ZM17.852 2.011L17.91 2.004L18 2L18.075 2.003L18.201 2.02L18.312 2.05L18.423 2.094L18.521 2.146L18.625 2.22L18.707 2.293L21.707 5.293C21.8025 5.38525 21.8787 5.49559 21.9311 5.6176C21.9835 5.7396 22.0111 5.87082 22.0123 6.0036C22.0134 6.13638 21.9881 6.26806 21.9379 6.39095C21.8876 6.51385 21.8133 6.6255 21.7194 6.7194C21.6255 6.81329 21.5139 6.88754 21.391 6.93782C21.2681 6.9881 21.1364 7.0134 21.0036 7.01225C20.8709 7.0111 20.7396 6.98351 20.6176 6.9311C20.4956 6.87869 20.3853 6.80251 20.293 6.707L19 5.415V10C19 10.2652 18.8947 10.5196 18.7071 10.7071C18.5196 10.8946 18.2652 11 18 11C17.7348 11 17.4805 10.8946 17.2929 10.7071C17.1054 10.5196 17 10.2652 17 10V5.415L15.707 6.707C15.5348 6.87918 15.3057 6.98261 15.0627 6.99789C14.8197 7.01317 14.5794 6.93925 14.387 6.79L14.293 6.707C14.1056 6.51947 14.0002 6.26516 14.0002 6C14.0002 5.73484 14.1056 5.48053 14.293 5.293L17.293 2.293C17.3284 2.257 17.3657 2.22467 17.405 2.196L17.515 2.125L17.629 2.071L17.734 2.036L17.852 2.011Z" fill="#515050"/>
</svg>
