<svg width="22" height="30" viewBox="0 0 22 30" fill="none" xmlns="http://www.w3.org/2000/svg">
<path d="M8.6733 28.0157C5.39877 26.7914 2.66815 22.6008 1.30111 20.1467C0.710779 19.0866 1.02188 17.7854 1.96904 17.0274C2.479 16.6196 3.12139 16.4142 3.77333 16.4503C4.42527 16.4865 5.04099 16.7618 5.5027 17.2234L6.59467 18.3154V10.3474C6.59467 9.88796 6.77717 9.44737 7.10202 9.12252C7.42687 8.79767 7.86745 8.61517 8.32686 8.61517C8.78626 8.61517 9.22685 8.79767 9.5517 9.12252C9.87655 9.44737 10.059 9.88796 10.059 10.3474V14.5046C10.059 14.0452 10.2415 13.6046 10.5664 13.2798C10.8912 12.9549 11.3318 12.7724 11.7912 12.7724C12.2506 12.7724 12.6912 12.9549 13.0161 13.2798C13.3409 13.6046 13.5234 14.0452 13.5234 14.5046V15.8904C13.5234 15.431 13.7059 14.9904 14.0308 14.6655C14.3556 14.3407 14.7962 14.1582 15.2556 14.1582C15.715 14.1582 16.1556 14.3407 16.4804 14.6655C16.8053 14.9904 16.9878 15.431 16.9878 15.8904V17.2761C16.9878 16.8167 17.1703 16.3761 17.4951 16.0513C17.82 15.7264 18.2606 15.5439 18.72 15.5439C19.1794 15.5439 19.62 15.7264 19.9448 16.0513C20.2697 16.3761 20.4522 16.8167 20.4522 17.2761V22.7276C20.4522 23.469 20.2686 24.2021 19.8411 24.8083C19.1322 25.8123 17.858 27.3463 16.2949 28.0157C13.8699 29.055 11.7012 29.1478 8.6733 28.0157Z" fill="#515050" stroke="#515050" stroke-width="2" stroke-linecap="round" stroke-linejoin="round"/>
<path d="M18.3736 6.53653L15.6021 9.30803L12.8306 6.53653" stroke="#515050" stroke-width="2" stroke-linecap="round" stroke-linejoin="round"/>
<path d="M3.13025 7.22942C3.13115 6.36263 3.31274 5.50555 3.66343 4.71288C4.01413 3.9202 4.52623 3.20935 5.16705 2.62568C5.80786 2.04201 6.56332 1.59834 7.38521 1.323C8.2071 1.04765 9.07737 0.946672 9.94047 1.02651C10.8036 1.10634 11.6406 1.36524 12.398 1.78667C13.1554 2.2081 13.8167 2.78281 14.3396 3.47412C14.8625 4.16543 15.2355 4.95816 15.4348 5.80171C15.6342 6.64526 15.6555 7.52111 15.4974 8.37335" stroke="#515050" stroke-width="2" stroke-linecap="round"/>
</svg>
