<svg width="12" height="12" viewBox="0 0 12 12" fill="none" xmlns="http://www.w3.org/2000/svg">
<path d="M0.375 6C0.375 7.49184 0.967632 8.92258 2.02252 9.97748C3.07742 11.0324 4.50816 11.625 6 11.625C7.49184 11.625 8.92258 11.0324 9.97748 9.97748C11.0324 8.92258 11.625 7.49184 11.625 6C11.625 4.50816 11.0324 3.07742 9.97748 2.02252C8.92258 0.967632 7.49184 0.375 6 0.375C4.50816 0.375 3.07742 0.967632 2.02252 2.02252C0.967632 3.07742 0.375 4.50816 0.375 6Z" stroke="white" stroke-linecap="round" stroke-linejoin="round"/>
<path d="M1.875 6.37498H3.375L4.505 3.54998C4.53345 3.47955 4.58263 3.41944 4.64604 3.37762C4.70944 3.3358 4.78406 3.31424 4.86 3.31582C4.93594 3.31739 5.0096 3.34201 5.07122 3.38643C5.13284 3.43084 5.17949 3.49294 5.205 3.56448L6.851 8.22698C6.87491 8.29468 6.91775 8.35409 6.97444 8.39816C7.03112 8.44223 7.09926 8.4691 7.17077 8.47557C7.24227 8.48205 7.31414 8.46786 7.37782 8.4347C7.4415 8.40153 7.49432 8.35078 7.53 8.28848L8.625 6.37498H10.125" stroke="white" stroke-linecap="round" stroke-linejoin="round"/>
</svg>
